<?xml version="1.0" encoding="utf-8"?>
<!-- Generator: Adobe Illustrator 21.0.0, SVG Export Plug-In . SVG Version: 6.00 Build 0)  -->
<svg version="1.1" id="Слой_1" xmlns="http://www.w3.org/2000/svg" xmlns:xlink="http://www.w3.org/1999/xlink" x="0px" y="0px"
	 viewBox="0 0 50 50" style="enable-background:new 0 0 50 50;" xml:space="preserve">
<style type="text/css">
	.st0{fill:#B83B33;}
	.st1{fill:#312E2F;}
	.st2{fill:#535353;}
	.st3{fill:#595759;}
	.st4{fill:#C4A779;}
	.st5{fill:#FFFFFF;}
</style>
<g>
	<g>
		<polygon class="st0" points="10.1,6.9 9.8,6.9 25,50 40.2,6.9 39.8,6.9 		"/>
		<polygon class="st1" points="40.2,4.6 40.2,4.6 9.8,4.6 9.8,4.6 9.4,4.6 9.4,7.3 9.8,7.3 10.1,7.3 39.8,7.3 40.2,7.3 40.6,7.3 
			40.6,4.6 		"/>
		<path class="st2" d="M25,3.5L25,3.5C25,3.5,25,3.5,25,3.5L25,3.5z"/>
		<path class="st2" d="M25,9.1L25,9.1L25,9.1C25,9.2,25,9.1,25,9.1z"/>
		<path class="st1" d="M40.2,4.6C40.2,4.5,40.2,4.5,40.2,4.6L39,0H11L9.8,4.5c0,0,0,0,0,0H40.2z"/>
		<rect x="9.1" y="4.6" class="st3" width="31.7" height="1.1"/>
		<polygon class="st4" points="11.4,13.2 19.5,36.1 30.5,36.1 38.5,13.2 		"/>
		<g>
			<g>
				<polygon class="st4" points="11.9,14.6 17.4,30.2 32.6,30.2 38,14.6 				"/>
			</g>
			<circle class="st5" cx="25" cy="22.4" r="5.4"/>
		</g>
	</g>
	<path class="st0" d="M29.8,22.3c0.1,2.5-2.1,4.8-4.7,4.8c-1.3,0-2.5-0.4-3.5-1.3c-0.9-0.9-1.5-2.2-1.5-3.5c0-1.3,0.6-2.6,1.5-3.5
		c0.9-0.9,2.2-1.4,3.5-1.3C27.6,17.5,29.8,19.8,29.8,22.3z M29.8,22.3c0-1.2-0.5-2.4-1.4-3.3c-0.9-0.8-2.1-1.3-3.3-1.3
		c-2.4,0-4.5,2.2-4.4,4.6c-0.1,2.4,2,4.5,4.4,4.6c1.2,0,2.4-0.4,3.3-1.3C29.2,24.7,29.7,23.5,29.8,22.3z"/>
</g>
</svg>
